#N canvas 714 23 625 815 12;
#X obj 20 25 text define tunings;
#X obj 19 72 del 10;
#X obj 19 52 bng 15 250 50 0 empty empty empty 17 7 0 10 #fcfcfc #000000
#000000;
#X obj 19 223 ftom;
#X obj 348 24 text define tuningsMIDI;
#X obj 19 158 text sequence tunings;
#X msg 19 122 line 0 \, auto;
#X msg 121 122 tempo 100 msec;
#X obj 19 190 unpack;
#X obj 58 223 ftom;
#X obj 19 251 pack;
#X obj 19 281 text insert tuningsMIDI;
#X obj 164 25 text define intervalsSym;
#X obj 19 479 + 0.499999;
#X obj 19 503 int;
#X obj 114 477 + 0.499999;
#X obj 114 501 int;
#X obj 19 343 text sequence tuningsMIDI;
#X msg 19 315 line 0 \, auto;
#X msg 126 315 tempo 100 msec;
#X obj 19 372 unpack;
#X obj 19 560 expr $f2 - $f1;
#X obj 178 160 bng 15 250 50 0 empty empty empty 17 7 0 10 #fcfcfc
#000000 #000000;
#X msg 66 95 clear;
#X obj 19 590 text get intervalsSym;
#X msg 98 256 1e+09;
#X text 147 258 insert after end;
#X obj 334 83 loadbang;
#X obj 203 158 del 20;
#X obj 19 96 t b b;
#N canvas 457 60 393 227 symbolDefinition 0;
#X msg 124 159 1e+09;
#X text 173 161 insert after end;
#X obj 45 184 text insert intervalsSym;
#X obj 12 97 t a;
#X obj 13 124 list split 1;
#X obj 13 148 t b a;
#X obj 57 148 list;
#X msg 12 70 unison 2m 2M 3m 3M/4D 4J 4A/5D 5J 6m/5A 6M 7m 7M 8J;
#X obj 12 10 inlet;
#X obj 12 39 t b b;
#X connect 0 0 2 1;
#X connect 3 0 4 0;
#X connect 4 0 5 0;
#X connect 4 1 6 1;
#X connect 5 0 6 0;
#X connect 5 1 2 0;
#X connect 6 0 3 0;
#X connect 7 0 3 0;
#X connect 8 0 9 0;
#X connect 9 0 7 0;
#X connect 9 1 0 0;
#X restore 334 111 pd symbolDefinition;
#X obj 235 685 pack, f 27;
#X obj 235 713 print;
#X obj 19 401 t f f;
#X obj 115 401 t f f;
#X obj 316 588 * 100;
#X obj 316 622 + 0.499999;
#X obj 316 646 int;
#X obj 235 527 expr $f2 - $f1;
#X obj 235 557 moses 0, f 12;
#X obj 405 526 expr $f2 - $f1;
#X obj 235 589 * 100;
#X obj 235 647 int;
#X obj 235 623 - 0.499999;
#X obj 486 588 * 100;
#X obj 486 622 + 0.499999;
#X obj 486 646 int;
#X obj 405 557 moses 0, f 12;
#X obj 405 589 * 100;
#X obj 405 647 int;
#X obj 405 623 - 0.499999;
#X obj 20 622 print;
#X text 65 621 Symbolic Intervals;
#X text 279 711 Cent deviation;
#X text 346 45 MIDI tunings;
#X connect 0 1 2 0;
#X connect 1 0 29 0;
#X connect 2 0 1 0;
#X connect 3 0 10 0;
#X connect 5 0 8 0;
#X connect 5 1 22 0;
#X connect 6 0 5 0;
#X connect 7 0 5 0;
#X connect 8 0 3 0;
#X connect 8 1 9 0;
#X connect 9 0 10 1;
#X connect 10 0 11 0;
#X connect 13 0 14 0;
#X connect 14 0 21 0;
#X connect 14 0 38 0;
#X connect 15 0 16 0;
#X connect 16 0 21 1;
#X connect 16 0 40 0;
#X connect 17 0 20 0;
#X connect 18 0 17 0;
#X connect 19 0 17 0;
#X connect 20 0 33 0;
#X connect 20 1 34 0;
#X connect 21 0 24 0;
#X connect 22 0 28 0;
#X connect 23 0 4 0;
#X connect 25 0 11 1;
#X connect 27 0 7 0;
#X connect 27 0 25 0;
#X connect 27 0 19 0;
#X connect 27 0 30 0;
#X connect 28 0 18 0;
#X connect 29 0 6 0;
#X connect 29 1 23 0;
#X connect 31 0 32 0;
#X connect 33 0 13 0;
#X connect 33 1 38 1;
#X connect 34 0 15 0;
#X connect 34 1 40 1;
#X connect 35 0 36 0;
#X connect 36 0 37 0;
#X connect 37 0 31 0;
#X connect 38 0 39 0;
#X connect 39 0 41 0;
#X connect 39 1 35 0;
#X connect 40 0 47 0;
#X connect 41 0 43 0;
#X connect 42 0 31 0;
#X connect 43 0 42 0;
#X connect 44 0 45 0;
#X connect 45 0 46 0;
#X connect 46 0 31 1;
#X connect 47 0 48 0;
#X connect 47 1 44 0;
#X connect 48 0 50 0;
#X connect 49 0 31 1;
#X connect 50 0 49 0;
